<?xml version="1.0" encoding="UTF-8"?>
<svg xmlns="http://www.w3.org/2000/svg" xmlns:xlink="http://www.w3.org/1999/xlink" width="1280" height="720" viewBox="0 0 1280 720">
<defs>
<g>
<g id="glyph-0-0">
<path d="M 2.023438 -2.035156 C 2.125 -1.929688 2.207031 -1.800781 2.265625 -1.652344 C 2.320312 -1.5 2.351562 -1.335938 2.351562 -1.152344 C 2.351562 -0.96875 2.320312 -0.800781 2.261719 -0.652344 C 2.203125 -0.503906 2.121094 -0.375 2.019531 -0.269531 C 1.917969 -0.164062 1.800781 -0.0859375 1.667969 -0.0273438 C 1.53125 0.0273438 1.390625 0.0546875 1.242188 0.0546875 C 1.078125 0.0546875 0.929688 0.0234375 0.796875 -0.0351562 C 0.660156 -0.09375 0.542969 -0.179688 0.445312 -0.285156 C 0.347656 -0.390625 0.269531 -0.519531 0.214844 -0.667969 C 0.15625 -0.820312 0.128906 -0.980469 0.128906 -1.152344 C 0.128906 -1.339844 0.160156 -1.507812 0.21875 -1.65625 C 0.277344 -1.800781 0.359375 -1.929688 0.460938 -2.035156 C 0.5625 -2.140625 0.679688 -2.222656 0.816406 -2.28125 C 0.953125 -2.335938 1.09375 -2.363281 1.242188 -2.363281 C 1.394531 -2.363281 1.539062 -2.335938 1.671875 -2.277344 C 1.808594 -2.222656 1.925781 -2.140625 2.023438 -2.035156 M 1.78125 -0.398438 C 1.84375 -0.496094 1.886719 -0.609375 1.914062 -0.734375 C 1.941406 -0.859375 1.957031 -1 1.957031 -1.152344 C 1.957031 -1.3125 1.941406 -1.457031 1.910156 -1.589844 C 1.878906 -1.722656 1.832031 -1.832031 1.773438 -1.925781 C 1.714844 -2.019531 1.640625 -2.089844 1.550781 -2.144531 C 1.460938 -2.195312 1.355469 -2.21875 1.242188 -2.21875 C 1.109375 -2.21875 1 -2.191406 0.90625 -2.128906 C 0.816406 -2.070312 0.742188 -1.992188 0.683594 -1.890625 C 0.632812 -1.796875 0.589844 -1.683594 0.5625 -1.554688 C 0.539062 -1.429688 0.523438 -1.292969 0.523438 -1.152344 C 0.523438 -0.996094 0.539062 -0.855469 0.566406 -0.730469 C 0.59375 -0.601562 0.640625 -0.492188 0.699219 -0.394531 C 0.757812 -0.296875 0.832031 -0.222656 0.921875 -0.171875 C 1.011719 -0.117188 1.117188 -0.0898438 1.242188 -0.0898438 C 1.355469 -0.0898438 1.460938 -0.117188 1.554688 -0.171875 C 1.648438 -0.226562 1.722656 -0.300781 1.78125 -0.398438 Z "/>
</g>
<g id="glyph-0-1">
<path d="M 1.925781 -1.738281 C 1.925781 -1.621094 1.902344 -1.511719 1.855469 -1.421875 C 1.808594 -1.328125 1.742188 -1.25 1.660156 -1.191406 C 1.578125 -1.128906 1.488281 -1.085938 1.386719 -1.054688 C 1.289062 -1.027344 1.183594 -1.015625 1.074219 -1.015625 L 0.816406 -1.015625 L 0.816406 -0.3125 C 0.816406 -0.277344 0.820312 -0.242188 0.835938 -0.214844 C 0.847656 -0.183594 0.871094 -0.164062 0.910156 -0.148438 C 0.929688 -0.140625 0.964844 -0.132812 1.015625 -0.125 C 1.0625 -0.121094 1.109375 -0.117188 1.152344 -0.117188 L 1.152344 0 L 0.160156 0 L 0.160156 -0.117188 C 0.183594 -0.117188 0.222656 -0.121094 0.273438 -0.125 C 0.320312 -0.132812 0.355469 -0.140625 0.375 -0.148438 C 0.410156 -0.164062 0.433594 -0.183594 0.445312 -0.210938 C 0.460938 -0.238281 0.46875 -0.273438 0.46875 -0.3125 L 0.46875 -1.980469 C 0.46875 -2.019531 0.464844 -2.054688 0.453125 -2.082031 C 0.441406 -2.113281 0.417969 -2.136719 0.375 -2.152344 C 0.335938 -2.164062 0.292969 -2.175781 0.253906 -2.183594 C 0.210938 -2.1875 0.175781 -2.191406 0.148438 -2.195312 L 0.148438 -2.308594 L 1.203125 -2.308594 C 1.417969 -2.308594 1.59375 -2.257812 1.726562 -2.152344 C 1.859375 -2.050781 1.925781 -1.914062 1.925781 -1.738281 M 1.433594 -1.347656 C 1.46875 -1.398438 1.492188 -1.453125 1.503906 -1.507812 C 1.515625 -1.5625 1.523438 -1.613281 1.523438 -1.660156 C 1.523438 -1.71875 1.515625 -1.785156 1.5 -1.847656 C 1.488281 -1.910156 1.460938 -1.96875 1.425781 -2.015625 C 1.386719 -2.066406 1.335938 -2.105469 1.277344 -2.132812 C 1.214844 -2.160156 1.136719 -2.175781 1.046875 -2.175781 L 0.816406 -2.175781 L 0.816406 -1.15625 L 0.980469 -1.15625 C 1.097656 -1.15625 1.195312 -1.171875 1.265625 -1.210938 C 1.339844 -1.246094 1.394531 -1.292969 1.433594 -1.347656 Z "/>
</g>
<g id="glyph-0-2">
<path d="M 1.597656 -1.058594 C 1.644531 -1.003906 1.679688 -0.945312 1.703125 -0.882812 C 1.726562 -0.816406 1.738281 -0.742188 1.738281 -0.65625 C 1.738281 -0.453125 1.664062 -0.285156 1.511719 -0.152344 C 1.363281 -0.0195312 1.175781 0.046875 0.953125 0.046875 C 0.847656 0.046875 0.746094 0.03125 0.644531 0 C 0.539062 -0.03125 0.449219 -0.0703125 0.375 -0.117188 L 0.304688 0 L 0.175781 0 L 0.152344 -0.789062 L 0.285156 -0.789062 C 0.3125 -0.691406 0.34375 -0.605469 0.378906 -0.523438 C 0.417969 -0.445312 0.464844 -0.371094 0.523438 -0.304688 C 0.582031 -0.242188 0.644531 -0.1875 0.722656 -0.152344 C 0.796875 -0.113281 0.886719 -0.09375 0.984375 -0.09375 C 1.058594 -0.09375 1.125 -0.105469 1.179688 -0.125 C 1.238281 -0.144531 1.28125 -0.171875 1.316406 -0.207031 C 1.351562 -0.242188 1.378906 -0.285156 1.394531 -0.332031 C 1.410156 -0.382812 1.417969 -0.4375 1.417969 -0.5 C 1.417969 -0.59375 1.394531 -0.679688 1.339844 -0.757812 C 1.289062 -0.839844 1.210938 -0.898438 1.109375 -0.941406 C 1.039062 -0.96875 0.957031 -1 0.867188 -1.035156 C 0.773438 -1.066406 0.695312 -1.101562 0.628906 -1.128906 C 0.5 -1.1875 0.398438 -1.265625 0.328125 -1.359375 C 0.253906 -1.453125 0.21875 -1.578125 0.21875 -1.730469 C 0.21875 -1.820312 0.234375 -1.902344 0.273438 -1.976562 C 0.308594 -2.054688 0.359375 -2.121094 0.425781 -2.179688 C 0.488281 -2.238281 0.5625 -2.28125 0.648438 -2.3125 C 0.734375 -2.34375 0.824219 -2.363281 0.917969 -2.363281 C 1.023438 -2.363281 1.117188 -2.34375 1.203125 -2.3125 C 1.285156 -2.28125 1.363281 -2.242188 1.433594 -2.199219 L 1.5 -2.308594 L 1.628906 -2.308594 L 1.640625 -1.542969 L 1.511719 -1.542969 C 1.488281 -1.628906 1.460938 -1.714844 1.429688 -1.796875 C 1.398438 -1.875 1.359375 -1.949219 1.3125 -2.011719 C 1.265625 -2.078125 1.210938 -2.125 1.140625 -2.164062 C 1.074219 -2.203125 0.992188 -2.21875 0.894531 -2.21875 C 0.792969 -2.21875 0.703125 -2.1875 0.632812 -2.121094 C 0.558594 -2.054688 0.523438 -1.972656 0.523438 -1.878906 C 0.523438 -1.777344 0.546875 -1.695312 0.59375 -1.628906 C 0.640625 -1.5625 0.707031 -1.511719 0.796875 -1.46875 C 0.875 -1.429688 0.953125 -1.398438 1.03125 -1.371094 C 1.105469 -1.34375 1.179688 -1.3125 1.25 -1.28125 C 1.316406 -1.253906 1.378906 -1.21875 1.441406 -1.183594 C 1.5 -1.148438 1.550781 -1.105469 1.597656 -1.058594 Z "/>
</g>
</g>
</defs>
<g fill="rgb(100%, 100%, 100%)" fill-opacity="1">
<use xlink:href="#glyph-0-0" x="30" y="23.056641"/>
<use xlink:href="#glyph-0-1" x="32" y="23.056641"/>
<use xlink:href="#glyph-0-2" x="34" y="23.056641"/>
</g>
</svg>
